<svg width="28" height="28" viewBox="0 0 28 28" fill="none" xmlns="http://www.w3.org/2000/svg">
<path d="M14 13.641C12.8771 13.641 11.9158 13.2412 11.1163 12.4416C10.3165 11.6419 9.91667 10.6806 9.91667 9.55764C9.91667 8.43472 10.3165 7.47348 11.1163 6.67393C11.9158 5.87418 12.8771 5.4743 14 5.4743C15.1229 5.4743 16.0842 5.87418 16.8837 6.67393C17.6835 7.47348 18.0833 8.43472 18.0833 9.55764C18.0833 10.6806 17.6835 11.6419 16.8837 12.4416C16.0842 13.2412 15.1229 13.641 14 13.641ZM5.25 22.5257V19.9319C5.25 19.3607 5.40517 18.8316 5.7155 18.3447C6.02583 17.8578 6.44058 17.4835 6.95975 17.2218C8.11281 16.6565 9.27607 16.2325 10.4495 15.9498C11.623 15.6671 12.8065 15.5257 14 15.5257C15.1935 15.5257 16.377 15.6671 17.5505 15.9498C18.7239 16.2325 19.8872 16.6565 21.0402 17.2218C21.5594 17.4835 21.9742 17.8578 22.2845 18.3447C22.5948 18.8316 22.75 19.3607 22.75 19.9319V22.5257H5.25ZM7 20.7757H21V19.9319C21 19.6957 20.9316 19.4769 20.7947 19.2757C20.6578 19.0746 20.472 18.9105 20.2373 18.7833C19.232 18.2883 18.2071 17.9132 17.1625 17.6581C16.1178 17.4032 15.0636 17.2757 14 17.2757C12.9364 17.2757 11.8822 17.4032 10.8375 17.6581C9.7929 17.9132 8.76799 18.2883 7.76271 18.7833C7.52801 18.9105 7.34222 19.0746 7.20533 19.2757C7.06844 19.4769 7 19.6957 7 19.9319V20.7757ZM14 11.891C14.6417 11.891 15.191 11.6625 15.6479 11.2056C16.1049 10.7486 16.3333 10.1993 16.3333 9.55764C16.3333 8.91597 16.1049 8.36667 15.6479 7.90972C15.191 7.45278 14.6417 7.2243 14 7.2243C13.3583 7.2243 12.809 7.45278 12.3521 7.90972C11.8951 8.36667 11.6667 8.91597 11.6667 9.55764C11.6667 10.1993 11.8951 10.7486 12.3521 11.2056C12.809 11.6625 13.3583 11.891 14 11.891Z" fill="#40AD52"/>
</svg>
