<svg width="22" height="23" viewBox="0 0 22 23" fill="none" xmlns="http://www.w3.org/2000/svg">
<path d="M6.59604 22.5257C6.02924 22.5257 5.54731 22.3271 5.15025 21.9298C4.75319 21.5328 4.55467 21.0508 4.55467 20.484C4.55467 19.917 4.75319 19.435 5.15025 19.038C5.54731 18.6409 6.02924 18.4424 6.59604 18.4424C7.16304 18.4424 7.64507 18.6409 8.04213 19.038C8.43918 19.435 8.63771 19.917 8.63771 20.484C8.63771 21.0508 8.43918 21.5328 8.04213 21.9298C7.64507 22.3271 7.16304 22.5257 6.59604 22.5257ZM17.904 22.5257C17.337 22.5257 16.8549 22.3271 16.4579 21.9298C16.0608 21.5328 15.8623 21.0508 15.8623 20.484C15.8623 19.917 16.0608 19.435 16.4579 19.038C16.8549 18.6409 17.337 18.4424 17.904 18.4424C18.4708 18.4424 18.9527 18.6409 19.3498 19.038C19.7468 19.435 19.9453 19.917 19.9453 20.484C19.9453 21.0508 19.7468 21.5328 19.3498 21.9298C18.9527 22.3271 18.4708 22.5257 17.904 22.5257ZM5.26779 4.08333L8.225 10.2757H16.1785C16.2457 10.2757 16.3056 10.2589 16.3581 10.2253C16.4104 10.1916 16.4553 10.1448 16.4926 10.085L19.6225 4.39746C19.6674 4.31521 19.6711 4.24229 19.6335 4.17871C19.5962 4.11513 19.5326 4.08333 19.4428 4.08333H5.26779ZM4.42896 2.33333H20.6275C21.1047 2.33333 21.4655 2.53643 21.7099 2.94263C21.9545 3.34863 21.9662 3.76328 21.7449 4.18658L18.0069 10.9576C17.8156 11.2942 17.5625 11.5563 17.2477 11.744C16.9327 11.9318 16.5876 12.0257 16.2123 12.0257H7.7L6.34929 14.4935C6.2894 14.5833 6.28756 14.6806 6.34375 14.7852C6.39975 14.89 6.48385 14.9424 6.59604 14.9424H19.9453V16.6924H6.59604C5.81826 16.6924 5.23386 16.357 4.84283 15.6861C4.45161 15.0153 4.43781 14.3455 4.80142 13.6768L6.46596 10.684L2.22133 1.75H0V0H3.32063L4.42896 2.33333Z" fill="#40AD52"/>
</svg>
