<svg width="25" height="34" viewBox="0 0 25 34" fill="none" xmlns="http://www.w3.org/2000/svg">
<path d="M23.1316 2.56547H16.1881V1.87272C16.1881 0.840191 15.3587 0 14.3393 0H10.6608C9.64117 0 8.81172 0.840191 8.81172 1.87283V2.56558H1.86826C0.838121 2.56558 0 3.39709 0 4.41901V5.64367C0 6.41174 0.473357 7.07202 1.1457 7.35287C1.35871 11.5986 2.59147 32.126 2.64694 33.0484C2.67072 33.4444 2.99864 33.7535 3.39521 33.7535H21.6048C22.0014 33.7535 22.3294 33.4444 22.3531 33.0484C22.4085 32.1261 23.6412 11.5986 23.8543 7.35287C24.5266 7.07202 25 6.41174 25 5.64367V4.4189C25 3.39698 24.1619 2.56547 23.1316 2.56547ZM10.311 1.87283C10.311 1.66731 10.4679 1.50015 10.6608 1.50015H14.3393C14.5321 1.50015 14.6888 1.66731 14.6888 1.87283V2.56558H10.3112L10.311 1.87283ZM1.49911 4.4189C1.49911 4.2241 1.66467 4.06562 1.86805 4.06562H23.1315C23.3349 4.06562 23.5005 4.22399 23.5005 4.4189V5.64356C23.5005 5.83847 23.3349 5.99706 23.1315 5.99706H1.86815C1.66478 5.99706 1.49921 5.83858 1.49921 5.64356L1.49911 4.4189ZM20.8985 32.2532H4.10096C3.88089 28.5835 2.87163 11.7147 2.65412 7.49721H22.3452C22.1277 11.7147 21.1186 28.5835 20.8985 32.2532Z" fill="#064929" fill-opacity="0.5"/>
<path d="M12.4999 10.1929C12.0859 10.1929 11.7502 10.5287 11.7502 10.9429V29.8136C11.7502 30.2279 12.0859 30.5637 12.4999 30.5637C12.9139 30.5637 13.2496 30.2279 13.2496 29.8136V10.9429C13.2496 10.5287 12.9139 10.1929 12.4999 10.1929Z" fill="#064929" fill-opacity="0.5"/>
<path d="M7.4345 10.9342C7.41287 10.5206 7.05892 10.2016 6.64682 10.2243C6.23344 10.2458 5.91569 10.5987 5.93732 11.0124L6.92066 29.8531C6.94155 30.2534 7.27247 30.5641 7.66861 30.5641C7.68178 30.5641 7.69506 30.5637 7.70834 30.563C8.12173 30.5415 8.43947 30.1886 8.41784 29.7749L7.4345 10.9342Z" fill="#064929" fill-opacity="0.5"/>
<path d="M18.3531 10.2239C17.9355 10.2 17.587 10.5201 17.5654 10.9338L16.5819 29.7745C16.5602 30.1882 16.878 30.5411 17.2914 30.5626C17.3047 30.5634 17.3179 30.5637 17.3311 30.5637C17.7271 30.5637 18.0581 30.2532 18.079 29.8527L19.0626 11.012C19.0842 10.5983 18.7666 10.2454 18.3531 10.2239Z" fill="#064929" fill-opacity="0.5"/>
</svg>
