<svg width="66" height="37" viewBox="0 0 66 37" fill="none" xmlns="http://www.w3.org/2000/svg">
<path d="M63.266 29.9705C61.3009 27.6357 58.9884 25.643 56.8004 23.5271C54.8264 21.6198 54.7019 20.5133 56.2887 18.312C58.0206 15.9094 59.8831 13.599 61.6306 11.2073C63.2619 8.97204 64.9295 6.74292 65.7878 4.06662C66.3323 2.36395 65.8508 1.61188 64.0882 1.31376C63.7845 1.26159 63.4705 1.25888 63.1614 1.25888L52.704 1.24668C51.4161 1.22771 50.704 1.78397 50.2485 2.9148C49.6336 4.44334 48.9996 5.97052 48.267 7.44554C46.605 10.7899 44.7486 14.0225 42.1461 16.7597C41.5722 17.3634 40.9375 18.1263 39.9786 17.812C38.7789 17.3783 38.4252 15.4202 38.4451 14.7583L38.4348 2.80165C38.2023 1.09356 37.8199 0.331997 36.1079 0L25.2449 0.00203281C23.7949 0.00203281 23.0678 0.556941 22.2936 1.45536C21.8469 1.97436 21.7122 2.3111 22.6301 2.4832C24.4331 2.82197 25.4488 3.97786 25.7183 5.76861C26.1505 8.62988 26.1204 11.5027 25.8715 14.3755C25.7983 15.2143 25.6526 16.051 25.3168 16.8343C24.7915 18.0654 23.9433 18.3161 22.8291 17.5586C21.8203 16.8729 21.1117 15.9054 20.4181 14.9338C17.8128 11.2872 15.7342 7.35475 14.0393 3.2224C13.5496 2.02857 12.7049 1.30495 11.4279 1.2853C8.29045 1.23584 5.15235 1.22771 2.01494 1.28801C0.127154 1.32324 -0.435761 2.23115 0.333032 3.92637C3.7502 11.4559 7.55381 18.7761 12.5188 25.4445C15.068 28.8668 17.9948 31.888 21.7758 34.029C26.0609 36.456 30.6737 37.1864 35.532 36.9614C37.8069 36.8557 38.4902 36.2696 38.5956 34.0236C38.6667 32.4869 38.8425 30.959 39.6078 29.5782C40.3588 28.2231 41.4963 27.965 42.8075 28.8078C43.4634 29.2299 44.0161 29.7672 44.538 30.3337C45.8184 31.7213 47.053 33.1509 48.3819 34.4918C50.0488 36.1721 52.0234 37.1647 54.5063 36.9621L64.1176 36.9641C65.6661 36.8638 66.4691 34.983 65.5799 33.2708C64.9555 32.0716 64.136 31.0038 63.266 29.9705Z" fill="#064929"/>
</svg>
