<svg width="75" height="57" viewBox="0 0 75 57" fill="none" xmlns="http://www.w3.org/2000/svg">
<g clip-path="url(#clip0_212_440)">
<path d="M56.5008 27.2314V53.6638C56.3132 53.6638 56.1257 53.6113 55.9681 53.4913C51.0012 49.8074 39.7469 40.5264 39.7469 33.3987C39.7469 27.8391 43.9411 23.3374 49.1105 23.3374C52.1192 23.3374 54.7976 24.868 56.4933 27.2389L56.5008 27.2314Z" fill="url(#paint0_linear_212_440)"/>
<path d="M73.2546 33.3987C73.2546 40.5264 62.0003 49.8074 57.0335 53.4913C56.8759 53.6113 56.6883 53.6639 56.5007 53.6639V27.2314L56.5082 27.2389C58.2039 24.868 60.8824 23.3374 63.8911 23.3374C69.0605 23.3374 73.2546 27.8391 73.2546 33.3987Z" fill="url(#paint1_linear_212_440)"/>
<path d="M72.8084 33.9384C72.8084 40.8763 61.8539 49.9102 57.0193 53.496C56.8659 53.6128 56.6833 53.6639 56.5007 53.6639V27.9353L56.508 27.9426C58.1585 25.6348 60.7657 24.145 63.6943 24.145C68.726 24.145 72.8084 28.5268 72.8084 33.9384Z" fill="url(#paint2_linear_212_440)"/>
<path d="M40.1832 33.9384C40.1832 40.8763 51.1378 49.9102 55.9724 53.496C56.1258 53.6128 56.3084 53.6639 56.4909 53.6639V27.9353L56.4836 27.9426C54.8331 25.6348 52.2259 24.145 49.2974 24.145C44.2656 24.145 40.1832 28.5268 40.1832 33.9384Z" fill="url(#paint3_linear_212_440)"/>
<path d="M63.0549 25.0986C60.3575 25.0986 57.9509 26.4715 56.4325 28.5955C54.9142 26.4715 52.5076 25.0986 49.8101 25.0986C45.1745 25.0986 41.4192 29.1366 41.4192 34.1195C41.4192 40.5077 51.5061 48.826 55.9561 52.1211C56.1014 52.2341 56.2629 52.2826 56.4325 52.2826C56.6022 52.2826 56.7637 52.2341 56.909 52.1211C61.3589 48.826 71.4459 40.5077 71.4459 34.1195C71.4459 29.1366 67.6905 25.0986 63.0549 25.0986Z" fill="#FD2134"/>
<path d="M56.909 50.9686C56.7637 51.0816 56.6022 51.13 56.4325 51.13C56.2629 51.13 56.1014 51.0816 55.9561 50.9686C51.6372 47.7705 42.0096 39.8408 41.4465 33.5361C41.435 33.7299 41.4192 33.9226 41.4192 34.1195C41.4192 40.5077 51.5062 48.826 55.9561 52.1211C56.1014 52.2341 56.2629 52.2825 56.4325 52.2825C56.6022 52.2825 56.7637 52.2341 56.909 52.1211C61.3589 48.826 71.4459 40.5077 71.4459 34.1195C71.4459 33.9226 71.4301 33.7299 71.4186 33.5361C70.8555 39.8408 61.2279 47.7705 56.909 50.9686Z" fill="url(#paint4_linear_212_440)"/>
<path opacity="0.3" d="M47.615 39.1355C51.7003 39.1355 55.0122 35.7471 55.0122 31.5673C55.0122 27.3874 51.7003 23.999 47.615 23.999C43.5296 23.999 40.2178 27.3874 40.2178 31.5673C40.2178 35.7471 43.5296 39.1355 47.615 39.1355Z" fill="url(#paint5_radial_212_440)"/>
<path d="M48.6691 32.8075L49.9399 34.3968L48.3506 33.1249L48.0012 36.278L47.6518 33.1249L46.0625 34.3968L47.3344 32.8075L44.1813 32.4581L47.3344 32.1076L46.0625 30.5194L47.6518 31.7902L48.0012 28.6382L48.3506 31.7913L49.9399 30.5194L48.6691 32.1076L51.8211 32.4581L48.6691 32.8075Z" fill="url(#paint6_radial_212_440)"/>
<path opacity="0.5" d="M42.5658 34.1195C42.5658 29.3297 45.5594 25.4237 49.3406 25.1275C49.1887 25.1186 49.0395 25.0986 48.8854 25.0986C44.2498 25.0986 40.4945 29.1366 40.4945 34.1195C40.4945 40.5077 50.5815 48.826 55.0314 52.1211C55.1767 52.2341 55.3382 52.2826 55.5078 52.2826C55.3616 52.2826 55.2224 52.2341 55.0971 52.1211C51.2611 48.826 42.5658 40.5077 42.5658 34.1195Z" fill="url(#paint7_radial_212_440)"/>
<path opacity="0.5" d="M62.5997 25.1272C66.381 25.4235 69.3746 29.3295 69.3746 34.1193C69.3746 40.2028 61.4514 48.1625 56.8432 52.1209C56.7179 52.2339 56.5787 52.2823 56.4325 52.2823C56.6021 52.2823 56.7636 52.2339 56.909 52.1209C61.3589 48.8258 71.4459 40.5075 71.4459 34.1193C71.4459 29.0957 67.5704 24.8375 62.5997 25.1272Z" fill="url(#paint8_radial_212_440)"/>
<path d="M68.8057 27.8183L71.1745 27.4324L68.8057 27.0465L68.4199 24.6777L68.034 27.0465L65.6652 27.4324L68.034 27.8183L68.4199 30.1871L68.8057 27.8183Z" fill="url(#paint9_radial_212_440)"/>
<path opacity="0.7" d="M56.4353 28.5986C55.2951 27.2214 53.7947 26.1692 52.1228 25.6861C50.4583 25.2098 48.6373 25.2674 47.0456 25.9292C44.2181 26.9581 41.7311 29.9792 41.4219 34.1142C41.2019 30.1704 43.4956 26.6853 46.8285 25.3749C47.6932 25.0472 48.614 24.8462 49.5396 24.8419C50.4622 24.8063 51.3932 24.9451 52.2612 25.2513C54.0042 25.8548 55.4926 27.0727 56.4353 28.5986Z" fill="url(#paint10_linear_212_440)"/>
<path opacity="0.7" d="M56.4325 28.5956C59.0072 25.4856 62.8062 24.6723 65.8221 25.9262C67.4486 26.5181 68.8046 27.7182 69.7891 29.1476C70.7654 30.5981 71.3123 32.3247 71.4459 34.1113C71.4958 33.2162 71.4116 32.3113 71.2174 31.4228C70.9852 30.5446 70.6367 29.6947 70.1757 28.9013C69.2205 27.3406 67.7684 26.0518 66.0393 25.3719C65.1746 25.0442 64.2537 24.8432 63.3282 24.8389C60.4954 24.7297 57.8587 26.2871 56.4325 28.5956Z" fill="url(#paint11_linear_212_440)"/>
<path opacity="0.7" d="M71.4186 33.5361C70.9561 39.8915 62.1895 47.3404 56.9091 50.9686C61.2756 47.4512 68.2331 41.4156 70.5607 36.2788C70.7999 35.8584 70.9132 35.3896 71.0923 34.9424C71.2536 34.4892 71.3057 34.007 71.4186 33.5361Z" fill="url(#paint12_linear_212_440)"/>
<g opacity="0.1">
<path d="M70.0426 25.8265C68.3963 24.2802 66.2481 23.3364 63.8911 23.3364C60.881 23.3364 58.203 24.8667 56.5066 27.2417L56.4994 27.2344L56.4922 27.2417C54.7958 24.8667 52.1178 23.3364 49.1077 23.3364C43.9392 23.3364 39.7452 27.8408 39.7452 33.399C39.7452 37.3125 43.1418 41.8756 47.0256 45.8055C66.9004 47.6504 69.6603 30.4745 70.0426 25.8265Z" fill="white"/>
</g>
<path d="M19.5008 4.23138V30.6638C19.3132 30.6638 19.1257 30.6113 18.9681 30.4913C14.0012 26.8074 2.74695 17.5264 2.74695 10.3987C2.74695 4.8391 6.94105 0.337402 12.1105 0.337402C15.1192 0.337402 17.7976 1.86796 19.4933 4.23889L19.5008 4.23138Z" fill="url(#paint13_linear_212_440)"/>
<path d="M36.2546 10.3987C36.2546 17.5264 25.0003 26.8074 20.0335 30.4913C19.8759 30.6113 19.6883 30.6639 19.5007 30.6639V4.23138L19.5082 4.23889C21.2039 1.86796 23.8824 0.337402 26.8911 0.337402C32.0605 0.337402 36.2546 4.8391 36.2546 10.3987Z" fill="url(#paint14_linear_212_440)"/>
<path d="M35.8084 10.9384C35.8084 17.8763 24.8539 26.9102 20.0193 30.496C19.8659 30.6128 19.6833 30.6639 19.5007 30.6639V4.9353L19.508 4.94261C21.1585 2.63482 23.7657 1.14502 26.6943 1.14502C31.726 1.14502 35.8084 5.52685 35.8084 10.9384Z" fill="url(#paint15_linear_212_440)"/>
<path d="M3.18323 10.9384C3.18323 17.8763 14.1378 26.9102 18.9724 30.496C19.1258 30.6128 19.3084 30.6639 19.4909 30.6639V4.9353L19.4836 4.94261C17.8331 2.63482 15.2259 1.14502 12.2974 1.14502C7.26565 1.14502 3.18323 5.52685 3.18323 10.9384Z" fill="url(#paint16_linear_212_440)"/>
<path d="M26.0549 2.09863C23.3575 2.09863 20.9509 3.47152 19.4325 5.59554C17.9142 3.47152 15.5076 2.09863 12.8101 2.09863C8.1745 2.09863 4.41919 6.13665 4.41919 11.1195C4.41919 17.5077 14.5061 25.826 18.9561 29.1211C19.1014 29.2341 19.2629 29.2826 19.4325 29.2826C19.6022 29.2826 19.7637 29.2341 19.909 29.1211C24.3589 25.826 34.4459 17.5077 34.4459 11.1195C34.4459 6.13665 30.6905 2.09863 26.0549 2.09863Z" fill="#FD2134"/>
<path d="M19.909 27.9686C19.7637 28.0816 19.6022 28.13 19.4325 28.13C19.2629 28.13 19.1014 28.0816 18.9561 27.9686C14.6372 24.7705 5.00957 16.8408 4.44654 10.5361C4.43497 10.7299 4.41919 10.9226 4.41919 11.1195C4.41919 17.5077 14.5062 25.826 18.9561 29.1211C19.1014 29.2341 19.2629 29.2825 19.4325 29.2825C19.6022 29.2825 19.7637 29.2341 19.909 29.1211C24.3589 25.826 34.4459 17.5077 34.4459 11.1195C34.4459 10.9226 34.4301 10.7299 34.4186 10.5361C33.8555 16.8408 24.2279 24.7705 19.909 27.9686Z" fill="url(#paint17_linear_212_440)"/>
<path opacity="0.3" d="M10.615 16.1355C14.7003 16.1355 18.0122 12.7471 18.0122 8.56727C18.0122 4.38744 14.7003 0.999023 10.615 0.999023C6.52962 0.999023 3.21777 4.38744 3.21777 8.56727C3.21777 12.7471 6.52962 16.1355 10.615 16.1355Z" fill="url(#paint18_radial_212_440)"/>
<path d="M11.6691 9.8075L12.9399 11.3968L11.3506 10.1249L11.0012 13.278L10.6518 10.1249L9.06247 11.3968L10.3344 9.8075L7.18127 9.4581L10.3344 9.10764L9.06247 7.51938L10.6518 8.7902L11.0012 5.63818L11.3506 8.79127L12.9399 7.51938L11.6691 9.10764L14.8211 9.4581L11.6691 9.8075Z" fill="url(#paint19_radial_212_440)"/>
<path opacity="0.5" d="M5.56579 11.1195C5.56579 6.32968 8.55942 2.42375 12.3406 2.12747C12.1887 2.11861 12.0395 2.09863 11.8854 2.09863C7.24981 2.09863 3.49451 6.13665 3.49451 11.1195C3.49451 17.5077 13.5815 25.826 18.0314 29.1211C18.1767 29.2341 18.3382 29.2826 18.5078 29.2826C18.3616 29.2826 18.2224 29.2341 18.0971 29.1211C14.2611 25.826 5.56579 17.5077 5.56579 11.1195Z" fill="url(#paint20_radial_212_440)"/>
<path opacity="0.5" d="M25.5997 2.12725C29.381 2.42348 32.3746 6.32946 32.3746 11.1193C32.3746 17.2028 24.4514 25.1625 19.8432 29.1209C19.7179 29.2339 19.5787 29.2823 19.4325 29.2823C19.6021 29.2823 19.7636 29.2339 19.909 29.1209C24.3589 25.8258 34.4459 17.5075 34.4459 11.1193C34.4459 6.09575 30.5704 1.83754 25.5997 2.12725Z" fill="url(#paint21_radial_212_440)"/>
<path d="M31.8057 4.81828L34.1745 4.43243L31.8057 4.04654L31.4199 1.67773L31.034 4.04654L28.6652 4.43243L31.034 4.81828L31.4199 7.18712L31.8057 4.81828Z" fill="url(#paint22_radial_212_440)"/>
<path opacity="0.7" d="M19.4353 5.59862C18.2951 4.22137 16.7947 3.1692 15.1228 2.6861C13.4583 2.20981 11.6373 2.26741 10.0456 2.92916C7.21814 3.95812 4.73108 6.97917 4.42192 11.1142C4.2019 7.17041 6.49557 3.68535 9.82848 2.37489C10.6932 2.04721 11.614 1.84619 12.5396 1.84188C13.4622 1.8063 14.3932 1.94514 15.2612 2.25125C17.0042 2.85476 18.4926 4.07271 19.4353 5.59862Z" fill="url(#paint23_linear_212_440)"/>
<path opacity="0.7" d="M19.4325 5.59565C22.0072 2.48555 25.8062 1.67231 28.8221 2.92619C30.4486 3.51808 31.8046 4.71815 32.7891 6.14757C33.7654 7.59806 34.3123 9.32473 34.4459 11.1113C34.4958 10.2162 34.4116 9.31134 34.2174 8.42276C33.9852 7.54459 33.6367 6.69472 33.1757 5.9013C32.2205 4.34064 30.7684 3.05176 29.0393 2.37191C28.1746 2.04423 27.2537 1.84322 26.3282 1.8389C23.4954 1.72966 20.8587 3.2871 19.4325 5.59565Z" fill="url(#paint24_linear_212_440)"/>
<path opacity="0.7" d="M34.4186 10.5361C33.9561 16.8915 25.1895 24.3404 19.9091 27.9686C24.2756 24.4512 31.2331 18.4156 33.5607 13.2788C33.7999 12.8584 33.9132 12.3896 34.0923 11.9424C34.2536 11.4892 34.3057 11.007 34.4186 10.5361Z" fill="url(#paint25_linear_212_440)"/>
<g opacity="0.1">
<path d="M33.0426 2.82647C31.3963 1.28024 29.2481 0.336426 26.8911 0.336426C23.881 0.336426 21.203 1.86674 19.5066 4.24166L19.4994 4.23443L19.4922 4.24166C17.7958 1.86674 15.1178 0.336426 12.1077 0.336426C6.93919 0.336426 2.74524 4.84076 2.74524 10.399C2.74524 14.3125 6.14182 18.8756 10.0256 22.8055C29.9004 24.6504 32.6603 7.47448 33.0426 2.82647Z" fill="white"/>
</g>
</g>
<defs>
<linearGradient id="paint0_linear_212_440" x1="50.9304" y1="34.1362" x2="54.4426" y2="23.4635" gradientUnits="userSpaceOnUse">
<stop offset="4e-07" stop-color="#FD2134"/>
<stop offset="1" stop-color="#B9133B"/>
</linearGradient>
<linearGradient id="paint1_linear_212_440" x1="56.5006" y1="38.5008" x2="73.2546" y2="38.5008" gradientUnits="userSpaceOnUse">
<stop offset="4e-07" stop-color="#FD2134"/>
<stop offset="1" stop-color="#B9133B"/>
</linearGradient>
<linearGradient id="paint2_linear_212_440" x1="56.6904" y1="38.9044" x2="59.5806" y2="38.9044" gradientUnits="userSpaceOnUse">
<stop offset="4e-07" stop-color="#FD2134"/>
<stop offset="1" stop-color="#B9133B"/>
</linearGradient>
<linearGradient id="paint3_linear_212_440" x1="56.3009" y1="38.9044" x2="53.4114" y2="38.9044" gradientUnits="userSpaceOnUse">
<stop offset="4e-07" stop-color="#FD2134"/>
<stop offset="1" stop-color="#B9133B"/>
</linearGradient>
<linearGradient id="paint4_linear_212_440" x1="41.4193" y1="42.9095" x2="71.4458" y2="42.9095" gradientUnits="userSpaceOnUse">
<stop offset="4e-07" stop-color="#FD2134"/>
<stop offset="1" stop-color="#B9133B"/>
</linearGradient>
<radialGradient id="paint5_radial_212_440" cx="0" cy="0" r="1" gradientUnits="userSpaceOnUse" gradientTransform="translate(47.6089 31.5635) scale(7.39362 7.5713)">
<stop stop-color="white" stop-opacity="0.999"/>
<stop offset="1" stop-color="white" stop-opacity="0"/>
</radialGradient>
<radialGradient id="paint6_radial_212_440" cx="0" cy="0" r="1" gradientUnits="userSpaceOnUse" gradientTransform="translate(48.0011 32.458) scale(3.82008)">
<stop offset="0.306306" stop-color="white"/>
<stop offset="1" stop-color="white" stop-opacity="0"/>
</radialGradient>
<radialGradient id="paint7_radial_212_440" cx="0" cy="0" r="1" gradientUnits="userSpaceOnUse" gradientTransform="translate(48.0011 38.6908) scale(10.9792)">
<stop offset="1e-07" stop-color="#FF4E61"/>
<stop offset="1" stop-color="white" stop-opacity="0"/>
</radialGradient>
<radialGradient id="paint8_radial_212_440" cx="0" cy="0" r="1" gradientUnits="userSpaceOnUse" gradientTransform="translate(63.939 38.6976) scale(10.975)">
<stop offset="1e-07" stop-color="#FF4E61"/>
<stop offset="1" stop-color="white" stop-opacity="0"/>
</radialGradient>
<radialGradient id="paint9_radial_212_440" cx="0" cy="0" r="1" gradientUnits="userSpaceOnUse" gradientTransform="translate(68.4196 27.4325) scale(2.75475)">
<stop stop-color="white" stop-opacity="0.999"/>
<stop offset="1" stop-color="white" stop-opacity="0"/>
</radialGradient>
<linearGradient id="paint10_linear_212_440" x1="41.1233" y1="29.4754" x2="56.6772" y2="29.4754" gradientUnits="userSpaceOnUse">
<stop stop-color="white" stop-opacity="0"/>
<stop offset="0.442342" stop-color="white"/>
<stop offset="0.640541" stop-color="white" stop-opacity="0.999"/>
<stop offset="1" stop-color="white" stop-opacity="0"/>
</linearGradient>
<linearGradient id="paint11_linear_212_440" x1="71.7439" y1="29.4723" x2="56.1906" y2="29.4723" gradientUnits="userSpaceOnUse">
<stop stop-color="white" stop-opacity="0"/>
<stop offset="0.442342" stop-color="white"/>
<stop offset="0.640541" stop-color="white" stop-opacity="0.999"/>
<stop offset="1" stop-color="white" stop-opacity="0"/>
</linearGradient>
<linearGradient id="paint12_linear_212_440" x1="56.909" y1="42.2526" x2="71.4186" y2="42.2526" gradientUnits="userSpaceOnUse">
<stop stop-color="white" stop-opacity="0"/>
<stop offset="0.442342" stop-color="white"/>
<stop offset="0.640541" stop-color="white" stop-opacity="0.999"/>
<stop offset="1" stop-color="white" stop-opacity="0"/>
</linearGradient>
<linearGradient id="paint13_linear_212_440" x1="13.9304" y1="11.1362" x2="17.4426" y2="0.463462" gradientUnits="userSpaceOnUse">
<stop offset="4e-07" stop-color="#FD2134"/>
<stop offset="1" stop-color="#B9133B"/>
</linearGradient>
<linearGradient id="paint14_linear_212_440" x1="19.5006" y1="15.5008" x2="36.2546" y2="15.5008" gradientUnits="userSpaceOnUse">
<stop offset="4e-07" stop-color="#FD2134"/>
<stop offset="1" stop-color="#B9133B"/>
</linearGradient>
<linearGradient id="paint15_linear_212_440" x1="19.6904" y1="15.9044" x2="22.5806" y2="15.9044" gradientUnits="userSpaceOnUse">
<stop offset="4e-07" stop-color="#FD2134"/>
<stop offset="1" stop-color="#B9133B"/>
</linearGradient>
<linearGradient id="paint16_linear_212_440" x1="19.3009" y1="15.9044" x2="16.4114" y2="15.9044" gradientUnits="userSpaceOnUse">
<stop offset="4e-07" stop-color="#FD2134"/>
<stop offset="1" stop-color="#B9133B"/>
</linearGradient>
<linearGradient id="paint17_linear_212_440" x1="4.41927" y1="19.9095" x2="34.4458" y2="19.9095" gradientUnits="userSpaceOnUse">
<stop offset="4e-07" stop-color="#FD2134"/>
<stop offset="1" stop-color="#B9133B"/>
</linearGradient>
<radialGradient id="paint18_radial_212_440" cx="0" cy="0" r="1" gradientUnits="userSpaceOnUse" gradientTransform="translate(10.6089 8.56349) scale(7.39362 7.5713)">
<stop stop-color="white" stop-opacity="0.999"/>
<stop offset="1" stop-color="white" stop-opacity="0"/>
</radialGradient>
<radialGradient id="paint19_radial_212_440" cx="0" cy="0" r="1" gradientUnits="userSpaceOnUse" gradientTransform="translate(11.0011 9.45803) scale(3.82008)">
<stop offset="0.306306" stop-color="white"/>
<stop offset="1" stop-color="white" stop-opacity="0"/>
</radialGradient>
<radialGradient id="paint20_radial_212_440" cx="0" cy="0" r="1" gradientUnits="userSpaceOnUse" gradientTransform="translate(11.0011 15.6908) scale(10.9792)">
<stop offset="1e-07" stop-color="#FF4E61"/>
<stop offset="1" stop-color="white" stop-opacity="0"/>
</radialGradient>
<radialGradient id="paint21_radial_212_440" cx="0" cy="0" r="1" gradientUnits="userSpaceOnUse" gradientTransform="translate(26.939 15.6976) scale(10.975)">
<stop offset="1e-07" stop-color="#FF4E61"/>
<stop offset="1" stop-color="white" stop-opacity="0"/>
</radialGradient>
<radialGradient id="paint22_radial_212_440" cx="0" cy="0" r="1" gradientUnits="userSpaceOnUse" gradientTransform="translate(31.4196 4.43248) scale(2.75475)">
<stop stop-color="white" stop-opacity="0.999"/>
<stop offset="1" stop-color="white" stop-opacity="0"/>
</radialGradient>
<linearGradient id="paint23_linear_212_440" x1="4.12325" y1="6.47537" x2="19.6772" y2="6.47537" gradientUnits="userSpaceOnUse">
<stop stop-color="white" stop-opacity="0"/>
<stop offset="0.442342" stop-color="white"/>
<stop offset="0.640541" stop-color="white" stop-opacity="0.999"/>
<stop offset="1" stop-color="white" stop-opacity="0"/>
</linearGradient>
<linearGradient id="paint24_linear_212_440" x1="34.7439" y1="6.47235" x2="19.1906" y2="6.47235" gradientUnits="userSpaceOnUse">
<stop stop-color="white" stop-opacity="0"/>
<stop offset="0.442342" stop-color="white"/>
<stop offset="0.640541" stop-color="white" stop-opacity="0.999"/>
<stop offset="1" stop-color="white" stop-opacity="0"/>
</linearGradient>
<linearGradient id="paint25_linear_212_440" x1="19.909" y1="19.2526" x2="34.4186" y2="19.2526" gradientUnits="userSpaceOnUse">
<stop stop-color="white" stop-opacity="0"/>
<stop offset="0.442342" stop-color="white"/>
<stop offset="0.640541" stop-color="white" stop-opacity="0.999"/>
<stop offset="1" stop-color="white" stop-opacity="0"/>
</linearGradient>
<clipPath id="clip0_212_440">
<rect width="75" height="57" fill="white"/>
</clipPath>
</defs>
</svg>
