<svg width="48" height="48" viewBox="0 0 48 48" fill="none" xmlns="http://www.w3.org/2000/svg">
<path d="M40 4H36V3C36 2.20435 35.6839 1.44129 35.1213 0.87868C34.5587 0.31607 33.7956 0 33 0C32.2044 0 31.4413 0.31607 30.8787 0.87868C30.3161 1.44129 30 2.20435 30 3V4H27V3C27 2.20435 26.6839 1.44129 26.1213 0.87868C25.5587 0.31607 24.7956 0 24 0C23.2044 0 22.4413 0.31607 21.8787 0.87868C21.3161 1.44129 21 2.20435 21 3V4H18V3C18 2.20435 17.6839 1.44129 17.1213 0.87868C16.5587 0.31607 15.7956 0 15 0C14.2044 0 13.4413 0.31607 12.8787 0.87868C12.3161 1.44129 12 2.20435 12 3V4H8C7.73478 4 7.48043 4.10536 7.29289 4.29289C7.10536 4.48043 7 4.73478 7 5V47C7 47.2652 7.10536 47.5196 7.29289 47.7071C7.48043 47.8946 7.73478 48 8 48H40C40.2652 48 40.5196 47.8946 40.7071 47.7071C40.8946 47.5196 41 47.2652 41 47V5C41 4.73478 40.8946 4.48043 40.7071 4.29289C40.5196 4.10536 40.2652 4 40 4ZM32 3C32 2.73478 32.1054 2.48043 32.2929 2.29289C32.4804 2.10536 32.7348 2 33 2C33.2652 2 33.5196 2.10536 33.7071 2.29289C33.8946 2.48043 34 2.73478 34 3V7C34 7.26522 33.8946 7.51957 33.7071 7.70711C33.5196 7.89464 33.2652 8 33 8C32.7348 8 32.4804 7.89464 32.2929 7.70711C32.1054 7.51957 32 7.26522 32 7V3ZM23 3C23 2.73478 23.1054 2.48043 23.2929 2.29289C23.4804 2.10536 23.7348 2 24 2C24.2652 2 24.5196 2.10536 24.7071 2.29289C24.8946 2.48043 25 2.73478 25 3V7C25 7.26522 24.8946 7.51957 24.7071 7.70711C24.5196 7.89464 24.2652 8 24 8C23.7348 8 23.4804 7.89464 23.2929 7.70711C23.1054 7.51957 23 7.26522 23 7V3ZM14 3C14 2.73478 14.1054 2.48043 14.2929 2.29289C14.4804 2.10536 14.7348 2 15 2C15.2652 2 15.5196 2.10536 15.7071 2.29289C15.8946 2.48043 16 2.73478 16 3V7C16 7.26522 15.8946 7.51957 15.7071 7.70711C15.5196 7.89464 15.2652 8 15 8C14.7348 8 14.4804 7.89464 14.2929 7.70711C14.1054 7.51957 14 7.26522 14 7V3ZM12 6V7C12 7.79565 12.3161 8.55871 12.8787 9.12132C13.4413 9.68393 14.2044 10 15 10C15.7956 10 16.5587 9.68393 17.1213 9.12132C17.6839 8.55871 18 7.79565 18 7V6H21V7C21 7.79565 21.3161 8.55871 21.8787 9.12132C22.4413 9.68393 23.2044 10 24 10C24.7956 10 25.5587 9.68393 26.1213 9.12132C26.6839 8.55871 27 7.79565 27 7V6H30V7C30 7.79565 30.3161 8.55871 30.8787 9.12132C31.4413 9.68393 32.2044 10 33 10C33.7956 10 34.5587 9.68393 35.1213 9.12132C35.6839 8.55871 36 7.79565 36 7V6H39V11H9V6H12ZM39 46H9V13H39V46ZM13.5 20H34.5C35.163 20 35.7989 19.7366 36.2678 19.2678C36.7366 18.7989 37 18.163 37 17.5C37 16.837 36.7366 16.2011 36.2678 15.7322C35.7989 15.2634 35.163 15 34.5 15H13.5C12.837 15 12.2011 15.2634 11.7322 15.7322C11.2634 16.2011 11 16.837 11 17.5C11 18.163 11.2634 18.7989 11.7322 19.2678C12.2011 19.7366 12.837 20 13.5 20ZM13.5 17H34.5C34.6326 17 34.7598 17.0527 34.8536 17.1464C34.9473 17.2402 35 17.3674 35 17.5C35 17.6326 34.9473 17.7598 34.8536 17.8536C34.7598 17.9473 34.6326 18 34.5 18H13.5C13.3674 18 13.2402 17.9473 13.1464 17.8536C13.0527 17.7598 13 17.6326 13 17.5C13 17.3674 13.0527 17.2402 13.1464 17.1464C13.2402 17.0527 13.3674 17 13.5 17ZM13.5 26H34.5C35.163 26 35.7989 25.7366 36.2678 25.2678C36.7366 24.7989 37 24.163 37 23.5C37 22.837 36.7366 22.2011 36.2678 21.7322C35.7989 21.2634 35.163 21 34.5 21H13.5C12.837 21 12.2011 21.2634 11.7322 21.7322C11.2634 22.2011 11 22.837 11 23.5C11 24.163 11.2634 24.7989 11.7322 25.2678C12.2011 25.7366 12.837 26 13.5 26ZM13.5 23H34.5C34.6326 23 34.7598 23.0527 34.8536 23.1464C34.9473 23.2402 35 23.3674 35 23.5C35 23.6326 34.9473 23.7598 34.8536 23.8536C34.7598 23.9473 34.6326 24 34.5 24H13.5C13.3674 24 13.2402 23.9473 13.1464 23.8536C13.0527 23.7598 13 23.6326 13 23.5C13 23.3674 13.0527 23.2402 13.1464 23.1464C13.2402 23.0527 13.3674 23 13.5 23ZM13.5 32H34.5C35.163 32 35.7989 31.7366 36.2678 31.2678C36.7366 30.7989 37 30.163 37 29.5C37 28.837 36.7366 28.2011 36.2678 27.7322C35.7989 27.2634 35.163 27 34.5 27H13.5C12.837 27 12.2011 27.2634 11.7322 27.7322C11.2634 28.2011 11 28.837 11 29.5C11 30.163 11.2634 30.7989 11.7322 31.2678C12.2011 31.7366 12.837 32 13.5 32ZM13.5 29H34.5C34.6326 29 34.7598 29.0527 34.8536 29.1464C34.9473 29.2402 35 29.3674 35 29.5C35 29.6326 34.9473 29.7598 34.8536 29.8536C34.7598 29.9473 34.6326 30 34.5 30H13.5C13.3674 30 13.2402 29.9473 13.1464 29.8536C13.0527 29.7598 13 29.6326 13 29.5C13 29.3674 13.0527 29.2402 13.1464 29.1464C13.2402 29.0527 13.3674 29 13.5 29ZM13.5 38H34.5C35.163 38 35.7989 37.7366 36.2678 37.2678C36.7366 36.7989 37 36.163 37 35.5C37 34.837 36.7366 34.2011 36.2678 33.7322C35.7989 33.2634 35.163 33 34.5 33H13.5C12.837 33 12.2011 33.2634 11.7322 33.7322C11.2634 34.2011 11 34.837 11 35.5C11 36.163 11.2634 36.7989 11.7322 37.2678C12.2011 37.7366 12.837 38 13.5 38ZM13.5 35H34.5C34.6326 35 34.7598 35.0527 34.8536 35.1464C34.9473 35.2402 35 35.3674 35 35.5C35 35.6326 34.9473 35.7598 34.8536 35.8536C34.7598 35.9473 34.6326 36 34.5 36H13.5C13.3674 36 13.2402 35.9473 13.1464 35.8536C13.0527 35.7598 13 35.6326 13 35.5C13 35.3674 13.0527 35.2402 13.1464 35.1464C13.2402 35.0527 13.3674 35 13.5 35ZM13.5 44H34.5C35.163 44 35.7989 43.7366 36.2678 43.2678C36.7366 42.7989 37 42.163 37 41.5C37 40.837 36.7366 40.2011 36.2678 39.7322C35.7989 39.2634 35.163 39 34.5 39H13.5C12.837 39 12.2011 39.2634 11.7322 39.7322C11.2634 40.2011 11 40.837 11 41.5C11 42.163 11.2634 42.7989 11.7322 43.2678C12.2011 43.7366 12.837 44 13.5 44ZM13.5 41H34.5C34.6326 41 34.7598 41.0527 34.8536 41.1464C34.9473 41.2402 35 41.3674 35 41.5C35 41.6326 34.9473 41.7598 34.8536 41.8536C34.7598 41.9473 34.6326 42 34.5 42H13.5C13.3674 42 13.2402 41.9473 13.1464 41.8536C13.0527 41.7598 13 41.6326 13 41.5C13 41.3674 13.0527 41.2402 13.1464 41.1464C13.2402 41.0527 13.3674 41 13.5 41Z" fill="#064929"/>
</svg>
