<svg width="64" height="56" viewBox="0 0 64 56" fill="none" xmlns="http://www.w3.org/2000/svg">
<path d="M62.6936 22.371C52.5118 22.371 42.7232 25.4259 34.3858 31.2054C31.3527 33.3081 28.587 35.7151 26.1225 38.3821V31.1646C31.486 30.5171 35.6572 25.9407 35.6572 20.4053C35.6572 14.4276 30.7942 9.56464 24.8165 9.56464C18.8389 9.56464 13.9759 14.4276 13.9759 20.4053C13.9759 25.9405 18.1469 30.5171 23.5105 31.1646V41.4522C20.7515 44.9736 18.4701 48.8657 16.7341 53.0481H12.1471V49.068C17.5106 48.4205 21.6818 43.8441 21.6818 38.3088C21.6818 32.3312 16.8188 27.4682 10.8411 27.4682C4.86347 27.4682 0.000460694 32.3312 0.000460694 38.3088C0.000460694 43.8441 4.17147 48.4206 9.53511 49.068V53.0481H1.30646C0.585212 53.0481 0.000335693 53.6329 0.000335693 54.3542C0.000335693 55.0756 0.585087 55.6604 1.30646 55.6604H62.6936C63.4149 55.6604 63.9997 55.0756 63.9997 54.3542V23.6772C63.9997 22.9558 63.4149 22.371 62.6936 22.371ZM9.11148 40.9382C8.60161 40.4282 7.77485 40.4282 7.26423 40.9382C6.75423 41.4482 6.75423 42.2753 7.26423 42.7853L9.53473 45.056V46.4326C5.61622 45.8046 2.61247 42.4015 2.61247 38.3087C2.61247 33.7716 6.30385 30.0802 10.841 30.0802C15.3781 30.0802 19.0695 33.7716 19.0695 38.3087C19.0695 42.4013 16.0658 45.8046 12.1471 46.4325V45.0558L15.9005 41.3023C16.4105 40.7923 16.4105 39.9653 15.9005 39.4552C15.3904 38.9452 14.5636 38.9452 14.0532 39.4553L10.8409 42.6677L9.11148 40.9382ZM21.2396 24.8818L23.5101 27.1524V28.5291C19.5916 27.9012 16.5879 24.498 16.5879 20.4053C16.5879 15.8682 20.2793 12.1768 24.8164 12.1768C29.3535 12.1768 33.0449 15.8682 33.0449 20.4053C33.0449 24.4979 30.0412 27.9012 26.1225 28.5291V27.1524L29.8759 23.3989C30.3859 22.8889 30.3859 22.0619 29.8759 21.5518C29.3658 21.0418 28.539 21.0418 28.0287 21.5519L24.8163 24.7643L23.0869 23.0348C22.5769 22.5248 21.7501 22.5248 21.2396 23.0347C20.7296 23.5447 20.7296 24.3717 21.2396 24.8818ZM19.5746 53.048C21.1966 49.3721 23.2419 45.9808 25.6404 42.9211C25.7848 42.8036 25.9026 42.6552 25.9861 42.4867C32.4957 34.3807 41.5123 28.6691 51.6985 26.2607C49.6745 27.6602 47.6578 29.4257 45.6782 31.5451C40.5753 37.0079 36.0476 44.429 32.5524 53.0481H19.5746V53.048ZM35.3787 53.0481C41.3119 38.9083 49.9448 28.7018 58.1264 25.8147C55.9501 28.4153 53.6911 32.0606 52.0183 35.1952C50.3052 38.4055 46.4348 46.289 45.7961 53.0481H35.3787ZM61.3875 53.048H48.4241C48.9105 48.626 51.056 42.5471 54.323 36.4248C56.9527 31.4968 59.595 27.8766 61.3875 26.1129V53.048Z" fill="#064929"/>
<path d="M63.0702 3.99385C62.3794 3.7861 61.651 4.1771 61.443 4.86772C61.4302 4.9101 60.1304 9.14223 56.9668 12.4052C56.4646 12.9231 56.4776 13.75 56.9955 14.2521C57.2491 14.4982 57.577 14.6206 57.9045 14.6206C58.2455 14.6206 58.5862 14.4877 58.8423 14.2237C62.4435 10.5091 63.8846 5.8191 63.9441 5.62123C64.1522 4.93047 63.761 4.20197 63.0702 3.99385Z" fill="#064929"/>
<path d="M55.5327 15.3923C55.1957 14.7545 54.4058 14.5104 53.7677 14.8475C53.3061 15.0914 52.8268 15.302 52.3432 15.4736C51.6633 15.7149 51.3078 16.4616 51.5492 17.1414C51.7391 17.6766 52.2425 18.0109 52.78 18.0109C52.9248 18.0109 53.0725 17.9866 53.2168 17.9353C53.819 17.7216 54.4148 17.4598 54.9878 17.1573C55.6257 16.8203 55.8697 16.0301 55.5327 15.3923Z" fill="#064929"/>
<path d="M48.4546 16.0812C44.1979 15.9504 40.5432 12.589 36.6737 9.03015C32.0718 4.79739 26.8557 0 19.6196 0C13.9715 0 8.78736 2.96351 4.62835 8.57052C1.56047 12.7059 0.131089 16.7933 0.0718386 16.9652C-0.163537 17.647 0.198464 18.3907 0.880341 18.626C1.02159 18.6748 1.16522 18.6979 1.30659 18.6979C1.84809 18.6979 2.35447 18.3582 2.54109 17.8174C2.59347 17.6654 7.92361 2.61226 19.6195 2.61226C25.837 2.61226 30.4469 6.85227 34.9052 10.9528C39.1427 14.8503 43.1454 18.5318 48.3743 18.6922C48.3881 18.6925 48.4015 18.6928 48.4152 18.6928C49.118 18.6928 49.6982 18.134 49.7198 17.4268C49.7421 16.7058 49.1755 16.1034 48.4546 16.0812Z" fill="#064929"/>
</svg>
