<svg width="30" height="43" viewBox="0 0 30 43" fill="none" xmlns="http://www.w3.org/2000/svg">
<path d="M26.2199 0H3.29587C1.47812 0 0 1.4452 0 3.22097V38.9708C0 40.7472 1.47881 42.1924 3.29587 42.1924H26.2199C28.0376 42.1924 29.5157 40.7472 29.5157 38.9708V3.22097C29.5157 1.4452 28.0376 0 26.2199 0ZM27.4532 38.9708C27.4532 39.6352 26.8998 40.1768 26.2199 40.1768H3.29587C2.61594 40.1768 2.0625 39.6352 2.0625 38.9708V33.7261H27.4532V38.9708ZM27.4532 31.7112H2.0625V3.22097C2.0625 2.55648 2.61594 2.01562 3.29587 2.01562H26.2199C26.8998 2.01562 27.4532 2.55648 27.4532 3.22097V31.7112Z" fill="#064929"/>
<path d="M13.2103 37.9597H16.3055C16.8747 37.9597 17.3367 37.5082 17.3367 36.9519C17.3367 36.3956 16.8747 35.9441 16.3055 35.9441H13.2103C12.6404 35.9441 12.1791 36.3956 12.1791 36.9519C12.1791 37.5082 12.6404 37.9597 13.2103 37.9597Z" fill="#064929"/>
<path d="M22.2743 10.4632C21.7656 10.1347 21.2286 9.84105 20.7075 9.53132C19.2218 8.64713 17.7355 7.76294 16.2498 6.87875C15.9315 6.68929 15.6131 6.49982 15.2941 6.31035C14.9648 6.11416 14.551 6.11416 14.221 6.31035C14.221 6.31035 7.07851 10.5606 7.04414 10.5808C6.44395 10.9376 6.54914 11.7156 6.54914 12.3162V14.4703V19.8634V22.1941C6.54914 22.5428 6.73339 22.866 7.03589 23.0494C7.03589 23.0494 14.2072 27.4079 14.2258 27.4193C14.5592 27.6229 14.9937 27.598 15.3203 27.3998L22.4785 23.0494C22.781 22.866 22.9653 22.5422 22.9653 22.1941C22.9653 19.0498 22.9653 15.9054 22.9653 12.761C22.9653 12.194 23.0395 11.6618 22.8807 11.2036C22.7858 10.9275 22.6057 10.6782 22.2743 10.4632ZM13.7266 24.7426L8.61233 21.6351V13.2354L13.7266 16.279V24.7426ZM14.7579 14.5328L9.56383 11.4421L14.7579 8.35151L19.952 11.4421L14.7579 14.5328ZM20.9041 21.6345L15.7891 24.7426V16.279L20.9035 13.2354L20.9041 21.6345Z" fill="#064929"/>
</svg>
