<svg width="65" height="60" viewBox="0 0 65 60" fill="none" xmlns="http://www.w3.org/2000/svg">
<path d="M23.8674 21.5629H12.6967C12.1364 21.5629 11.6814 21.9829 11.6814 22.5C11.6814 23.0172 12.1364 23.4372 12.6967 23.4372H23.8674C24.4276 23.4372 24.8826 23.0172 24.8826 22.5C24.8826 21.9829 24.4276 21.5629 23.8674 21.5629ZM35.7129 21.8L26.5726 14.3C26.2414 14.0286 25.7555 13.9857 25.3779 14.1972C24.9971 14.4057 24.8083 14.82 24.9105 15.22L25.6286 18H16.7576C16.1974 18 15.7424 18.42 15.7424 18.9372C15.7424 19.4543 16.1974 19.8743 16.7576 19.8743H26.9131C27.2226 19.8743 27.5167 19.7429 27.7117 19.5172C27.9036 19.2914 27.9748 18.9972 27.9036 18.7172L27.6343 17.6743L33.5121 22.4972L27.6343 27.3229L27.9036 26.28C27.9748 26 27.9036 25.7057 27.7117 25.48C27.5198 25.2543 27.2257 25.1229 26.9131 25.1229H9.64785C9.08761 25.1229 8.63261 25.5429 8.63261 26.06C8.63261 26.5772 9.08761 26.9972 9.64785 26.9972H25.6286L24.9105 29.78C24.8083 30.1772 24.9971 30.5914 25.3779 30.8029C25.7586 31.0114 26.2414 30.9714 26.5726 30.7L35.7129 23.2C35.9295 23.0229 36.0533 22.7686 36.0533 22.5C36.0533 22.2314 35.9295 21.9772 35.7129 21.8ZM35.7129 21.8L26.5726 14.3C26.2414 14.0286 25.7555 13.9857 25.3779 14.1972C24.9971 14.4057 24.8083 14.82 24.9105 15.22L25.6286 18H16.7576C16.1974 18 15.7424 18.42 15.7424 18.9372C15.7424 19.4543 16.1974 19.8743 16.7576 19.8743H26.9131C27.2226 19.8743 27.5167 19.7429 27.7117 19.5172C27.9036 19.2914 27.9748 18.9972 27.9036 18.7172L27.6343 17.6743L33.5121 22.4972L27.6343 27.3229L27.9036 26.28C27.9748 26 27.9036 25.7057 27.7117 25.48C27.5198 25.2543 27.2257 25.1229 26.9131 25.1229H9.64785C9.08761 25.1229 8.63261 25.5429 8.63261 26.06C8.63261 26.5772 9.08761 26.9972 9.64785 26.9972H25.6286L24.9105 29.78C24.8083 30.1772 24.9971 30.5914 25.3779 30.8029C25.7586 31.0114 26.2414 30.9714 26.5726 30.7L35.7129 23.2C35.9295 23.0229 36.0533 22.7686 36.0533 22.5C36.0533 22.2314 35.9295 21.9772 35.7129 21.8ZM23.8674 21.5629H12.6967C12.1364 21.5629 11.6814 21.9829 11.6814 22.5C11.6814 23.0172 12.1364 23.4372 12.6967 23.4372H23.8674C24.4276 23.4372 24.8826 23.0172 24.8826 22.5C24.8826 21.9829 24.4276 21.5629 23.8674 21.5629ZM23.8674 21.5629H12.6967C12.1364 21.5629 11.6814 21.9829 11.6814 22.5C11.6814 23.0172 12.1364 23.4372 12.6967 23.4372H23.8674C24.4276 23.4372 24.8826 23.0172 24.8826 22.5C24.8826 21.9829 24.4276 21.5629 23.8674 21.5629ZM35.7129 21.8L26.5726 14.3C26.2414 14.0286 25.7555 13.9857 25.3779 14.1972C24.9971 14.4057 24.8083 14.82 24.9105 15.22L25.6286 18H16.7576C16.1974 18 15.7424 18.42 15.7424 18.9372C15.7424 19.4543 16.1974 19.8743 16.7576 19.8743H26.9131C27.2226 19.8743 27.5167 19.7429 27.7117 19.5172C27.9036 19.2914 27.9748 18.9972 27.9036 18.7172L27.6343 17.6743L33.5121 22.4972L27.6343 27.3229L27.9036 26.28C27.9748 26 27.9036 25.7057 27.7117 25.48C27.5198 25.2543 27.2257 25.1229 26.9131 25.1229H9.64785C9.08761 25.1229 8.63261 25.5429 8.63261 26.06C8.63261 26.5772 9.08761 26.9972 9.64785 26.9972H25.6286L24.9105 29.78C24.8083 30.1772 24.9971 30.5914 25.3779 30.8029C25.7586 31.0114 26.2414 30.9714 26.5726 30.7L35.7129 23.2C35.9295 23.0229 36.0533 22.7686 36.0533 22.5C36.0533 22.2314 35.9295 21.9772 35.7129 21.8ZM35.7129 21.8L26.5726 14.3C26.2414 14.0286 25.7555 13.9857 25.3779 14.1972C24.9971 14.4057 24.8083 14.82 24.9105 15.22L25.6286 18H16.7576C16.1974 18 15.7424 18.42 15.7424 18.9372C15.7424 19.4543 16.1974 19.8743 16.7576 19.8743H26.9131C27.2226 19.8743 27.5167 19.7429 27.7117 19.5172C27.9036 19.2914 27.9748 18.9972 27.9036 18.7172L27.6343 17.6743L33.5121 22.4972L27.6343 27.3229L27.9036 26.28C27.9748 26 27.9036 25.7057 27.7117 25.48C27.5198 25.2543 27.2257 25.1229 26.9131 25.1229H9.64785C9.08761 25.1229 8.63261 25.5429 8.63261 26.06C8.63261 26.5772 9.08761 26.9972 9.64785 26.9972H25.6286L24.9105 29.78C24.8083 30.1772 24.9971 30.5914 25.3779 30.8029C25.7586 31.0114 26.2414 30.9714 26.5726 30.7L35.7129 23.2C35.9295 23.0229 36.0533 22.7686 36.0533 22.5C36.0533 22.2314 35.9295 21.9772 35.7129 21.8ZM12.6967 23.4372H23.8674C24.4276 23.4372 24.8826 23.0172 24.8826 22.5C24.8826 21.9829 24.4276 21.5629 23.8674 21.5629H12.6967C12.1364 21.5629 11.6814 21.9829 11.6814 22.5C11.6814 23.0172 12.1333 23.4372 12.6967 23.4372ZM61.329 26.7514L54.7919 14.68C54.275 13.7286 53.2195 13.1257 52.0681 13.1257H41.1357V10.3143C41.1357 8.76001 39.7707 7.50287 38.09 7.50287H5.59C3.90619 7.50287 2.54428 8.76287 2.54428 10.3143V45.94C2.54428 46.4572 2.99928 46.8772 3.55952 46.8772H6.67952C7.17476 50.0572 10.1369 52.5029 13.7181 52.5029C17.2993 52.5029 20.2614 50.0572 20.7567 46.8772H41.2131C41.7052 50.0572 44.6705 52.5029 48.2517 52.5029C51.8298 52.5029 54.795 50.0572 55.2902 46.8772H58.4102C59.2181 46.8772 59.995 46.58 60.5645 46.0543C61.1371 45.5286 61.4559 44.8114 61.4559 44.0657C61.4559 39.3172 61.4559 27.1914 61.4559 27.1914V27.1714C61.4436 27.02 61.4002 26.8772 61.329 26.7514ZM13.7119 50.6257C10.9076 50.6257 8.63261 48.5257 8.63261 45.9372C8.63261 43.3486 10.9076 41.2486 13.7119 41.2486C16.5162 41.2486 18.7881 43.3486 18.7881 45.9372C18.7881 48.5257 16.5131 50.6257 13.7119 50.6257ZM39.1021 45H20.7474C20.2521 41.82 17.29 39.3743 13.7088 39.3743C10.1276 39.3743 7.16547 41.82 6.67023 45H5.5838C5.02357 45 4.56857 44.58 4.56857 44.0629V35.6257H39.099V45H39.1021ZM39.1021 33.7486H4.57166V10.3114C4.57166 9.7943 5.02666 9.3743 5.5869 9.3743H38.0869C38.6471 9.3743 39.1021 9.7943 39.1021 10.3114V33.7486ZM41.1326 15H52.065C52.4488 15 52.8017 15.2 52.9719 15.52L58.7848 26.2514H41.1326V15ZM48.2424 50.6257C45.4381 50.6257 43.1631 48.5257 43.1631 45.9372C43.1631 43.3486 45.4381 41.2486 48.2424 41.2486C51.0467 41.2486 53.3217 43.3486 53.3217 45.9372C53.3217 48.5257 51.0467 50.6257 48.2424 50.6257ZM59.4131 44.0629C59.4131 44.3114 59.3078 44.5514 59.1159 44.7257C58.9271 44.9029 58.6671 45 58.3979 45H55.2779C54.7857 41.82 51.8205 39.3743 48.2393 39.3743C44.6612 39.3743 41.6959 41.82 41.2007 45H41.1295V28.1257H59.41V44.0629H59.4131ZM35.7129 21.8L26.5726 14.3C26.2414 14.0286 25.7555 13.9857 25.3779 14.1972C24.9971 14.4057 24.8083 14.82 24.9105 15.22L25.6286 18H16.7576C16.1974 18 15.7424 18.42 15.7424 18.9372C15.7424 19.4543 16.1974 19.8743 16.7576 19.8743H26.9131C27.2226 19.8743 27.5167 19.7429 27.7117 19.5172C27.9036 19.2914 27.9748 18.9972 27.9036 18.7172L27.6343 17.6743L33.5121 22.4972L27.6343 27.3229L27.9036 26.28C27.9748 26 27.9036 25.7057 27.7117 25.48C27.5198 25.2543 27.2257 25.1229 26.9131 25.1229H9.64785C9.08761 25.1229 8.63261 25.5429 8.63261 26.06C8.63261 26.5772 9.08761 26.9972 9.64785 26.9972H25.6286L24.9105 29.78C24.8083 30.1772 24.9971 30.5914 25.3779 30.8029C25.7586 31.0114 26.2414 30.9714 26.5726 30.7L35.7129 23.2C35.9295 23.0229 36.0533 22.7686 36.0533 22.5C36.0533 22.2314 35.9295 21.9772 35.7129 21.8ZM12.6967 23.4372H23.8674C24.4276 23.4372 24.8826 23.0172 24.8826 22.5C24.8826 21.9829 24.4276 21.5629 23.8674 21.5629H12.6967C12.1364 21.5629 11.6814 21.9829 11.6814 22.5C11.6814 23.0172 12.1333 23.4372 12.6967 23.4372ZM23.8674 21.5629H12.6967C12.1364 21.5629 11.6814 21.9829 11.6814 22.5C11.6814 23.0172 12.1364 23.4372 12.6967 23.4372H23.8674C24.4276 23.4372 24.8826 23.0172 24.8826 22.5C24.8826 21.9829 24.4276 21.5629 23.8674 21.5629ZM35.7129 21.8L26.5726 14.3C26.2414 14.0286 25.7555 13.9857 25.3779 14.1972C24.9971 14.4057 24.8083 14.82 24.9105 15.22L25.6286 18H16.7576C16.1974 18 15.7424 18.42 15.7424 18.9372C15.7424 19.4543 16.1974 19.8743 16.7576 19.8743H26.9131C27.2226 19.8743 27.5167 19.7429 27.7117 19.5172C27.9036 19.2914 27.9748 18.9972 27.9036 18.7172L27.6343 17.6743L33.5121 22.4972L27.6343 27.3229L27.9036 26.28C27.9748 26 27.9036 25.7057 27.7117 25.48C27.5198 25.2543 27.2257 25.1229 26.9131 25.1229H9.64785C9.08761 25.1229 8.63261 25.5429 8.63261 26.06C8.63261 26.5772 9.08761 26.9972 9.64785 26.9972H25.6286L24.9105 29.78C24.8083 30.1772 24.9971 30.5914 25.3779 30.8029C25.7586 31.0114 26.2414 30.9714 26.5726 30.7L35.7129 23.2C35.9295 23.0229 36.0533 22.7686 36.0533 22.5C36.0533 22.2314 35.9295 21.9772 35.7129 21.8ZM35.7129 21.8L26.5726 14.3C26.2414 14.0286 25.7555 13.9857 25.3779 14.1972C24.9971 14.4057 24.8083 14.82 24.9105 15.22L25.6286 18H16.7576C16.1974 18 15.7424 18.42 15.7424 18.9372C15.7424 19.4543 16.1974 19.8743 16.7576 19.8743H26.9131C27.2226 19.8743 27.5167 19.7429 27.7117 19.5172C27.9036 19.2914 27.9748 18.9972 27.9036 18.7172L27.6343 17.6743L33.5121 22.4972L27.6343 27.3229L27.9036 26.28C27.9748 26 27.9036 25.7057 27.7117 25.48C27.5198 25.2543 27.2257 25.1229 26.9131 25.1229H9.64785C9.08761 25.1229 8.63261 25.5429 8.63261 26.06C8.63261 26.5772 9.08761 26.9972 9.64785 26.9972H25.6286L24.9105 29.78C24.8083 30.1772 24.9971 30.5914 25.3779 30.8029C25.7586 31.0114 26.2414 30.9714 26.5726 30.7L35.7129 23.2C35.9295 23.0229 36.0533 22.7686 36.0533 22.5C36.0533 22.2314 35.9295 21.9772 35.7129 21.8ZM23.8674 21.5629H12.6967C12.1364 21.5629 11.6814 21.9829 11.6814 22.5C11.6814 23.0172 12.1364 23.4372 12.6967 23.4372H23.8674C24.4276 23.4372 24.8826 23.0172 24.8826 22.5C24.8826 21.9829 24.4276 21.5629 23.8674 21.5629Z" fill="#064929"/>
</svg>
