<svg width="79" height="79" viewBox="0 0 79 79" fill="none" xmlns="http://www.w3.org/2000/svg">
<circle cx="39.5" cy="39.5" r="39.5" fill="#40AD52"/>
<path d="M53.0339 28H26.3182C23.9372 28 22 29.9372 22 32.3182V47.6818C22 50.0628 23.9372 52 26.3182 52H53.0339C55.4148 52 57.3521 50.0628 57.3521 47.6818V32.3186C57.3525 29.9372 55.4153 28 53.0339 28ZM50.9239 30.8171L39.676 38.0637L28.4282 30.8171H50.9239ZM53.0339 49.1833H26.3182C25.4904 49.1833 24.8171 48.5096 24.8171 47.6823V32.3985L38.8069 41.3945C38.8257 41.4062 38.8459 41.4142 38.8652 41.425C38.8854 41.4363 38.906 41.4471 38.9267 41.4574C39.0351 41.5133 39.1469 41.5583 39.261 41.5879C39.2727 41.5912 39.2845 41.5926 39.2962 41.5954C39.4216 41.625 39.5483 41.6433 39.6751 41.6433H39.676C39.677 41.6433 39.6779 41.6433 39.6779 41.6433C39.8047 41.6433 39.9315 41.6255 40.0568 41.5954C40.0686 41.5926 40.0803 41.5912 40.092 41.5879C40.2061 41.5583 40.3174 41.5133 40.4263 41.4574C40.447 41.4471 40.4676 41.4363 40.4878 41.425C40.5071 41.4142 40.5273 41.4062 40.5461 41.3945L54.5359 32.3985V47.6818C54.5354 48.5096 53.8617 49.1833 53.0339 49.1833Z" fill="#F2F9ED"/>
</svg>
