<svg width="79" height="79" viewBox="0 0 79 79" fill="none" xmlns="http://www.w3.org/2000/svg">
<circle cx="39.5" cy="39.5" r="39.5" fill="#40AD52"/>
<path d="M58.7098 21.3855C58.3723 21.004 57.8399 20.9017 57.3988 21.0963L20.6843 37.3273C20.2775 37.5073 20.0102 37.9096 20.0003 38.3588C19.9904 38.8073 20.2395 39.2211 20.6386 39.4196L29.4051 43.7735L31.5897 57.0091C31.6606 57.5114 32.0513 57.9152 32.5602 57.9883C32.9258 58.0414 33.2891 57.9114 33.5405 57.6498L40.4614 50.6605L50.3378 57.7852C50.6546 58.0129 51.0629 58.0629 51.4224 57.9191C51.7827 57.7752 52.0463 57.456 52.1225 57.0721L58.9779 22.3794C59.0457 22.0355 58.9581 21.6671 58.7098 21.3855ZM30.3101 41.6512L23.8545 38.445L49.3582 27.1702L30.3101 41.6512ZM33.8855 45.0812L32.823 50.4467L31.6766 43.5004L45.6898 32.8472L34.1971 44.4927C34.0356 44.6558 33.9282 44.8681 33.8855 45.0812ZM34.581 53.3352L35.7799 47.2835L38.5762 49.3005L34.581 53.3352ZM50.2273 54.869L36.7656 45.1589L55.9965 25.6733L50.2273 54.869Z" fill="#F2F9ED"/>
</svg>
